#!OML:ASF F:\VICON\USERDATA\INSTALL\rory3\rory3.ASF
:FULLY-SPECIFIED
:DEGREES
371
root 0.118308 17.9534 32.3928 -6.748 -1.31549 -7.16554
lowerback 17.7057 -0.438365 5.74104
upperback 1.11697 0.919588 3.86305
thorax -8.72568 0.297936 0.6978
lowerneck -11.3561 -0.434517 -2.15626
upperneck 30.6449 0.334859 -1.40882
head 11.9172 -0.272205 -0.106958
rclavicle -2.45251e-014 -1.59028e-014
rhumerus -27.9814 -5.3272 -76.4244
rradius 39.1957
rwrist -4.62365
rhand -14.2634 8.63574
rfingers 7.12502
rthumb 11.8751 -21.0075
lclavicle -2.45251e-014 -1.59028e-014
lhumerus -40.2254 1.31826 89.221
lradius 42.482
lwrist 6.01611
lhand -11.3694 51.4893
lfingers 7.12502
lthumb 14.6646 80.9507
rfemur 1.38062 5.53169 36.0347
rtibia 27.6203
rfoot -17.364 -13.0206
rtoes 11.7402
lfemur -25.8141 0.62958 -12.3015
ltibia 45.2275
lfoot -12.1076 4.94646
ltoes -17.4167
372
root 0.122531 17.947 32.5287 -6.52938 -1.2566 -7.11303
lowerback 17.4709 -0.422724 5.71535
upperback 1.08945 0.915077 3.8508
thorax -8.62528 0.298206 0.698939
lowerneck -11.3639 -0.497734 -2.15255
upperneck 30.6679 0.24727 -1.42296
head 11.9284 -0.313077 -0.124749
rclavicle 4.29872e-015 7.31528e-014
rhumerus -27.8487 -4.8869 -76.4272
rradius 39.5304
rwrist -4.75916
rhand -14.3161 8.59082
rfingers 7.12502
rthumb 11.8243 -21.0554
lclavicle 4.29872e-015 7.31528e-014
lhumerus -40.112 1.20357 89.3004
lradius 42.4272
lwrist 6.1954
lhand -11.5478 51.4805
lfingers 7.12502
lthumb 14.4927 80.9544
rfemur 1.89162 5.37275 35.9741
rtibia 27.1475
rfoot -17.3632 -13.0878
rtoes 11.0116
lfemur -25.9996 0.0749737 -12.3186
ltibia 42.7215
lfoot -12.5618 5.38609
ltoes -17.4402
373
root 0.124854 17.9454 32.6664 -6.35599 -1.28297 -7.29431
lowerback 17.089 -0.386446 5.99105
upperback 1.31992 0.966482 3.86278
thorax -8.15475 0.324672 0.53833
lowerneck -11.7455 -0.51079 -2.08133
upperneck 30.6239 0.23702 -1.46544
head 11.9899 -0.31541 -0.155128
rclavicle -8.32411e-015 -8.34896e-015
rhumerus -27.222 -4.86725 -76.4468
rradius 39.6308
rwrist -4.74937
rhand -14.4495 8.58955
rfingers 7.12502
rthumb 11.6957 -21.064
lclavicle -8.32411e-015 -8.34896e-015
lhumerus -39.6811 0.907707 89.4078
lradius 42.4834
lwrist 6.44179
lhand -11.5862 51.3319
lfingers 7.12502
lthumb 14.4558 80.8084
rfemur 2.48186 5.37107 36.218
rtibia 26.5921
rfoot -17.3571 -13.1908
rtoes 10.7354
lfemur -26.1085 -0.524133 -12.0054
ltibia 40.1105
lfoot -12.8248 5.91731
ltoes -17.9575
374
root 0.131889 17.9543 32.8216 -6.30384 -1.50506 -7.33997
lowerback 17.5215 -0.302047 6.08691
upperback 0.965689 1.16679 3.91368
thorax -8.7775 0.400937 0.498405
lowerneck -11.0772 -0.449021 -1.97033
upperneck 30.4877 0.345275 -1.68736
head 11.7978 -0.276609 -0.240149
rclavicle -1.64743e-014 3.97569e-015
rhumerus -27.6363 -4.50695 -76.2634
rradius 39.6144
rwrist -4.84076
rhand -14.5296 8.81527
rfingers 7.12502
rthumb 11.6184 -20.8426
lclavicle -1.64743e-014 3.97569e-015
lhumerus -40.4162 0.947795 89.5316
lradius 42.7412
lwrist 6.32618
lhand -11.38 51.5297
lfingers 7.12502
lthumb 14.6544 80.9919
rfemur 3.37869 5.45435 36.2818
rtibia 25.9234
rfoot -17.4726 -13.1449
rtoes 10.5112
lfemur -25.9243 -1.19325 -11.7923
ltibia 37.4748
lfoot -12.8942 6.59192
ltoes -17.86
